#N canvas 141 101 1124 993 12;
#X obj 183 292 snapshot~;
#X obj 21 101 netreceive -u -b 55555;
#X obj 21 123 bng 19 250 50 0 empty empty empty 0 -10 0 12 #fcfcfc #000000 #000000;
#X obj 211 270 snapshot~;
#X obj 238 248 snapshot~;
#X obj 265 226 snapshot~;
#X obj 21 343 loadbang;
#X obj 21 413 sel 1;
#X obj 21 436 print Connection_started;
#X obj 21 199 dac~ 27 28 29 30;
#X obj 183 314 pack f f f f;
#X obj 21 145 t b b b b;
#X msg 21 78 listen 55555;
#X obj 21 55 loadbang;
#X msg 21 367 connect 192.168.6.1 66666;
#X obj 21 390 netsend -u 192.168.6.1 66666;
#X obj 184 136 lop~ 40;
#X obj 211 158 lop~ 40;
#X obj 238 180 lop~ 40;
#X obj 265 202 lop~ 40;
#X text 231 387 Sends float values out to the computer-side patch \, where they are stored or used for prediction, f 19;
#X text 325 12 This patch receives bang from the computer-side patch \, which is records capture the ADC values from the distance sensors when the dataset example is taken \, or uses them to predict the position and displacement., f 27;
#X obj 184 101 adc~ 7 8 9 10;
#X connect 0 0 10 0;
#X connect 1 0 2 0;
#X connect 2 0 11 0;
#X connect 3 0 10 1;
#X connect 4 0 10 2;
#X connect 5 0 10 3;
#X connect 6 0 14 0;
#X connect 7 0 8 0;
#X connect 10 0 15 0;
#X connect 11 0 0 0;
#X connect 11 1 3 0;
#X connect 11 2 4 0;
#X connect 11 3 5 0;
#X connect 12 0 1 0;
#X connect 13 0 12 0;
#X connect 14 0 15 0;
#X connect 15 0 7 0;
#X connect 16 0 0 0;
#X connect 16 0 9 0;
#X connect 17 0 3 0;
#X connect 17 0 9 1;
#X connect 18 0 4 0;
#X connect 18 0 9 2;
#X connect 19 0 5 0;
#X connect 19 0 9 3;
#X connect 22 0 16 0;
#X connect 22 1 17 0;
#X connect 22 2 18 0;
#X connect 22 3 19 0;
