#N canvas 985 0 1522 1041 12;
#X obj 14 34 loadbang;
#X obj 78 34 bng 19 250 50 0 empty empty empty 0 -10 0 12 #fcfcfc #000000 #000000;
#X obj 507 126 bng 45 250 50 0 empty empty empty 0 -10 0 12 #404040 #ff0400 #000000;
#X msg 237 80 1;
#X obj 14 127 unpack f f f f;
#X floatatom 14 149 12 0 0 0 - - - 0;
#X floatatom 102 149 12 0 0 0 - - - 0;
#X floatatom 190 149 12 0 0 0 - - - 0;
#X floatatom 278 149 12 0 0 0 - - - 0;
#X obj 289 35 loadbang;
#X text 15 9 Values from Bela;
#X msg 289 58 connect 192.168.6.2 55555;
#X obj 237 102 netsend -u -b;
#X obj 22 105 bng 19 250 50 0 empty empty empty 0 -10 0 12 #fcfcfc #000000 #000000;
#X obj 78 104 print Address/Port;
#X obj 237 124 tgl 19 0 empty empty empty 0 -10 0 12 #fcfcfc #000000 #000000 0 1;
#X obj 119 127 print adc_vals;
#X msg 14 58 listen 66666;
#X obj 14 81 netreceive -u -f 66666;
#X floatatom 503 43 8 0 0 0 - - - 0;
#X text 500 23 Pos (mm);
#X text 566 24 Dist (mm);
#X floatatom 569 43 8 0 0 0 - - - 0;
#X obj 304 309 list append;
#X obj 263 220 t b b;
#X obj 276 437 textfile;
#X msg 304 331 add \$1 \$2 \$3 \$4 \$5 \$6;
#X obj 263 264 pack i i i;
#X msg 263 242 0;
#X obj 263 286 list split 1;
#X msg 339 437 clear;
#X obj 507 445 t b b;
#X obj 507 423 bng 19 50 10 0 empty empty empty 0 -10 0 12 #fcfcfc #000000 #000000;
#X obj 507 82 key;
#X obj 661 388 tgl 75 0 empty empty empty 0 -10 0 12 #000000 #ff0400 #000000 0 1;
#X msg 661 365 1;
#X msg 695 365 0;
#X obj 507 104 sel 35;
#X obj 105 361 bng 45 250 50 0 empty empty empty 0 -10 0 12 #fcfcfc #000000 #000000;
#X text 102 341 Manual save;
#X obj 304 354 t b a;
#X text 660 462 Capture in progress, f 10;
#X obj 507 176 t b b b b b b b b b b;
#X obj 645 216 delay 100;
#X obj 633 239 delay 200;
#X obj 614 262 delay 300;
#X obj 596 285 delay 400;
#X obj 577 308 delay 500;
#X obj 563 332 delay 600;
#X obj 544 355 delay 700;
#X obj 526 378 delay 800;
#X obj 507 401 delay 900;
#X text 556 125 Capture 10 examples (tilde/pound), f 13;
#X obj 539 489 s get_example;
#X obj 263 197 delay 25;
#X obj 423 467 s add_to_dataset;
#X obj 191 58 r get_example;
#X obj 263 174 r add_to_dataset;
#X text 103 483 Read dataset from file;
#X obj 703 106 + 1;
#X obj 673 106 i;
#X floatatom 673 129 8 0 0 0 - - - 0;
#X msg 673 84 0;
#X msg 570 5 30;
#X msg 603 5 25;
#X msg 636 5 20;
#X msg 669 5 15;
#X msg 702 5 10;
#X msg 735 5 5;
#X msg 105 409 write ./dataset/output_2023-11-13.txt, f 22;
#X msg 105 459 read ./dataset/output_2023-11-13.txt;
#X text 774 3 <- set distance between string and neck, f 14;
#X text 14 175 The patch communicates with the included _main.pd to receive sensor values from the optical distance sensors. The ~ key initiates collection of 10 samples from each sensor at 100ms intervals. The dataset is saved to file after every sample is received., f 33;
#X connect 0 0 17 0;
#X connect 1 0 17 0;
#X connect 2 0 42 0;
#X connect 2 0 60 0;
#X connect 3 0 12 0;
#X connect 4 0 5 0;
#X connect 4 1 6 0;
#X connect 4 2 7 0;
#X connect 4 3 8 0;
#X connect 9 0 11 0;
#X connect 11 0 12 0;
#X connect 12 0 15 0;
#X connect 17 0 18 0;
#X connect 18 0 13 0;
#X connect 18 0 4 0;
#X connect 18 0 16 0;
#X connect 18 0 23 1;
#X connect 18 1 14 0;
#X connect 19 0 27 1;
#X connect 19 0 62 0;
#X connect 19 0 63 0;
#X connect 22 0 27 2;
#X connect 22 0 62 0;
#X connect 23 0 26 0;
#X connect 24 0 28 0;
#X connect 26 0 40 0;
#X connect 27 0 29 0;
#X connect 28 0 27 0;
#X connect 29 1 23 0;
#X connect 30 0 25 0;
#X connect 31 0 55 0;
#X connect 31 1 53 0;
#X connect 32 0 31 0;
#X connect 33 0 37 0;
#X connect 35 0 34 0;
#X connect 36 0 34 0;
#X connect 37 0 2 0;
#X connect 38 0 69 0;
#X connect 40 0 38 0;
#X connect 40 1 25 0;
#X connect 42 0 51 0;
#X connect 42 1 50 0;
#X connect 42 2 49 0;
#X connect 42 3 48 0;
#X connect 42 4 47 0;
#X connect 42 5 46 0;
#X connect 42 6 45 0;
#X connect 42 7 44 0;
#X connect 42 8 43 0;
#X connect 42 9 32 0;
#X connect 43 0 32 0;
#X connect 44 0 32 0;
#X connect 45 0 32 0;
#X connect 46 0 32 0;
#X connect 47 0 32 0;
#X connect 48 0 32 0;
#X connect 49 0 32 0;
#X connect 50 0 32 0;
#X connect 51 0 32 0;
#X connect 51 0 36 0;
#X connect 54 0 24 0;
#X connect 56 0 3 0;
#X connect 57 0 54 0;
#X connect 59 0 60 1;
#X connect 60 0 59 0;
#X connect 60 0 61 0;
#X connect 62 0 60 0;
#X connect 63 0 22 0;
#X connect 64 0 22 0;
#X connect 65 0 22 0;
#X connect 66 0 22 0;
#X connect 67 0 22 0;
#X connect 68 0 22 0;
#X connect 69 0 25 0;
#X connect 70 0 25 0;
