#N canvas 234 107 762 421 12;
#X obj 8 42 unpack f f f f;
#X obj 8 157 pack f f f f, f 14;
#X obj 8 18 inlet list_to_scale;
#X obj 249 18 inlet new_max;
#X obj 149 18 inlet old_max;
#X obj 8 65 expr $f1 * $f3 / $f2;
#X obj 40 88 expr $f1 * $f3 / $f2;
#X obj 71 111 expr $f1 * $f3 / $f2;
#X obj 103 134 expr $f1 * $f3 / $f2;
#X obj 8 181 outlet scaled_list;
#X text 260 43 Inlets:;
#X text 262 60 1 List to scale;
#X text 262 74 2 Old maximum;
#X text 262 88 3 New maximum;
#X text 260 104 Outlets;
#X text 261 120 1 Scaled list;
#X connect 0 0 5 0;
#X connect 0 1 6 0;
#X connect 0 2 7 0;
#X connect 0 3 8 0;
#X connect 1 0 9 0;
#X connect 2 0 0 0;
#X connect 3 0 5 2;
#X connect 3 0 6 2;
#X connect 3 0 7 2;
#X connect 3 0 8 2;
#X connect 4 0 5 1;
#X connect 4 0 6 1;
#X connect 4 0 7 1;
#X connect 4 0 8 1;
#X connect 5 0 1 0;
#X connect 6 0 1 1;
#X connect 7 0 1 2;
#X connect 8 0 1 3;
