#N canvas 297 227 1902 1156 12;
#X msg 100 387 next \$1;
#X obj 96 112 mtof;
#X obj 100 318 tgl 19 0 empty empty empty 0 -10 0 12 #fcfcfc #000000 #000000 0 1;
#X text 23 81 Scale playback speed depending on active source sample, f 9;
#N canvas 26 26 1017 566 rand_pos 0;
#X obj 19 23 inlet generate;
#X obj 184 24 inlet sample_dur_samp;
#X obj 19 46 random 1000;
#X obj 19 69 expr int(($f1/1000)*$i2);
#X obj 19 93 outlet sample_pos;
#X connect 0 0 2 0;
#X connect 1 0 3 1;
#X connect 2 0 3 0;
#X connect 3 0 4 0;
#X restore 100 364 pd rand_pos;
#X obj 100 492 outlet~;
#X obj 100 433 *~;
#X obj 609 113 loadbang;
#X msg 609 135 200;
#X obj 328 135 line~;
#X obj 100 271 loadbang;
#X msg 100 295 1;
#X obj 174 318 r C5_dur_samp;
#X obj 96 158 s v1_grain_speed;
#X obj 602 158 s v1_grain_dur;
#X obj 328 158 s~ v1_string_volume;
#X obj 129 433 r~ v1_string_volume;
#X obj 96 89 inlet v1_midi_note;
#X obj 328 89 inlet v1_volume;
#X obj 602 90 inlet v1_grain_dur_ms;
#X msg 875 393 next \$1;
#X obj 861 108 mtof;
#X obj 875 324 tgl 19 0 empty empty empty 0 -10 0 12 #fcfcfc #000000 #000000 0 1;
#X text 788 77 Scale playback speed depending on active source sample, f 9;
#N canvas 26 26 1017 566 rand_pos 0;
#X obj 19 23 inlet generate;
#X obj 184 24 inlet sample_dur_samp;
#X obj 19 46 random 1000;
#X obj 19 69 expr int(($f1/1000)*$i2);
#X obj 19 93 outlet sample_pos;
#X connect 0 0 2 0;
#X connect 1 0 3 1;
#X connect 2 0 3 0;
#X connect 3 0 4 0;
#X restore 875 370 pd rand_pos;
#X obj 875 498 outlet~;
#X obj 875 439 *~;
#X obj 1360 109 loadbang;
#X msg 1360 131 200;
#X obj 1083 131 line~;
#X obj 875 277 loadbang;
#X msg 875 301 1;
#X obj 949 324 r C5_dur_samp;
#X obj 861 85 inlet v2_midi_note;
#X obj 1083 85 inlet v2_volume;
#X obj 1353 86 inlet v2_grain_dur_ms;
#X obj 1353 154 s v2_grain_dur;
#X obj 1083 154 s~ v2_string_volume;
#X obj 861 154 s v2_grain_speed;
#X obj 1048 324 r v2_grain_dur;
#X obj 273 318 r v1_grain_dur;
#X obj 904 439 r~ v2_string_volume;
#X obj 96 135 / 220.01;
#X obj 861 131 / 220.01;
#X msg 328 112 \$1 5;
#X msg 1083 108 \$1 5;
#X obj 174 341 expr $i1-($i2*44.1)-4410;
#X obj 949 347 expr $i1-($i2*44.1)-4410;
#X obj 100 341 metro 50;
#X obj 875 347 metro 50;
#X obj 100 410 clone v1_C5_grain~ 12;
#X obj 875 416 clone v2_C5_grain~ 12;
#X text 240 94 Converts the voice volume to audio rate., f 10;
#X text 478 87 Initialise the grain duration to 200ms \, and pass on newly received values., f 15;
#X text 997 94 Converts the voice volume to audio rate., f 10;
#X text 1235 87 Initialise the grain duration to 200ms \, and pass on newly received values., f 15;
#X text 24 29 --- VOICE 1 ---;
#X text 787 29 --- VOICE 2 ---;
#X text 1125 347 <- Ensures that the grain start position chosen does not allow the grain to end past the end of the audio sample. Formula: sample duration in samples - grain duration in samples - buffer of 4410 samples/100ms, f 18;
#X text 352 342 <- Ensures that the grain start position chosen does not allow the grain to end past the end of the audio sample. Formula: sample duration in samples - grain duration in samples - buffer of 4410 samples/100ms, f 18;
#X text 133 293 Trigger new grain every 50ms;
#X text 906 301 Trigger new grain every 50ms;
#X connect 0 0 50 0;
#X connect 1 0 42 0;
#X connect 2 0 48 0;
#X connect 4 0 0 0;
#X connect 6 0 5 0;
#X connect 7 0 8 0;
#X connect 8 0 14 0;
#X connect 9 0 15 0;
#X connect 10 0 11 0;
#X connect 11 0 2 0;
#X connect 12 0 46 0;
#X connect 16 0 6 1;
#X connect 17 0 1 0;
#X connect 18 0 44 0;
#X connect 19 0 14 0;
#X connect 20 0 51 0;
#X connect 21 0 43 0;
#X connect 22 0 49 0;
#X connect 24 0 20 0;
#X connect 26 0 25 0;
#X connect 27 0 28 0;
#X connect 28 0 36 0;
#X connect 29 0 37 0;
#X connect 30 0 31 0;
#X connect 31 0 22 0;
#X connect 32 0 47 0;
#X connect 33 0 21 0;
#X connect 34 0 45 0;
#X connect 35 0 36 0;
#X connect 39 0 47 1;
#X connect 40 0 46 1;
#X connect 41 0 26 1;
#X connect 42 0 13 0;
#X connect 43 0 38 0;
#X connect 44 0 9 0;
#X connect 45 0 29 0;
#X connect 46 0 4 1;
#X connect 47 0 24 1;
#X connect 48 0 4 0;
#X connect 49 0 24 0;
#X connect 50 0 6 0;
#X connect 51 0 26 0;
#X coords 0 0 0.5 0.5 0 0 0;
