#N canvas 396 176 1991 1118 12;
#X obj 43 38 loadbang;
#X obj 43 101 s bela_setTrill;
#X obj 104 145 r bela_trill;
#X obj 104 169 route mycraft;
#X obj 219 113 r bela_trillCreated;
#X obj 219 137 print bela_trillCreated;
#X msg 43 63 new mycraft 1 CRAFT \, prescaler mycraft 4 \, threshold mycraft 0.025;
#X obj 104 193 unpack f f f f f f f f f, f 25;
#X obj 254 326 cyclone/scale 0 0.76 0 1;
#X obj 430 326 cyclone/scale 0 0.76 0 1;
#X obj 255 395 line;
#X obj 430 395 line;
#X obj 254 349 clip 0 1;
#X obj 430 349 clip 0 1;
#X obj 496 167 +;
#X msg 519 238 0.76;
#X obj 496 215 sel 0 1;
#X msg 496 261 0.6;
#X obj 496 191 > 0.63;
#X obj 496 285 change;
#X msg 255 373 \$1 5;
#X msg 430 373 \$1 5;
#X obj 254 418 outlet trill_R;
#X obj 430 418 outlet trill_L;
#X text 495 18 This patch initialises the TrillCraft. A prescaler value of 4 was chosen as it provided the best balance between avoiding proximity sensing while maintaining a fairly large range of values from the two used sensors.;
#X text 40 246 Trill values are scaled to 0-1. The original max in for the cyclone/scale objects changes depending on whether one or two of the copper strips are currently being touched. This is because I routed the cables for these two strips next to each other therefore they interfere. This step allows me to eventually calibrate out the hardware mistake., f 26;
#X connect 0 0 6 0;
#X connect 2 0 3 0;
#X connect 3 0 7 0;
#X connect 4 0 5 0;
#X connect 6 0 1 0;
#X connect 7 7 8 0;
#X connect 7 7 14 0;
#X connect 7 8 9 0;
#X connect 7 8 14 1;
#X connect 8 0 12 0;
#X connect 9 0 13 0;
#X connect 10 0 22 0;
#X connect 11 0 23 0;
#X connect 12 0 20 0;
#X connect 13 0 21 0;
#X connect 14 0 18 0;
#X connect 15 0 19 0;
#X connect 16 0 17 0;
#X connect 16 1 15 0;
#X connect 17 0 19 0;
#X connect 18 0 16 0;
#X connect 19 0 9 2;
#X connect 19 0 8 2;
#X connect 20 0 10 0;
#X connect 21 0 11 0;
