#N canvas 974 594 978 641 12;
#X obj 20 81 pack f f f;
#X msg 20 104 \$1 \, \$2 \$3;
#X obj 20 127 vline~;
#X obj 105 38 * 44.1;
#X obj 212 60 / 1;
#X obj 20 14 inlet start;
#X obj 20 229 outlet~;
#X obj 188 154 vline~;
#X obj 20 173 *~;
#X obj 188 108 f;
#X obj 188 85 bng 19 250 50 0 empty empty empty 0 -10 0 12 #fcfcfc #000000 #000000;
#X obj 53 59 +;
#X obj 20 38 t f f;
#X obj 212 85 - 100;
#X obj 20 150 tabread4~ C5;
#X obj 212 14 r v1_grain_speed;
#X obj 105 14 r v1_grain_dur;
#X obj 20 197 *~ 0.2;
#X msg 188 131 1 100 \, 0 100 \$1;
#X obj 212 37 t b f f;
#X text 217 109 Grain envelope;
#X text 71 127 Play grain;
#X connect 0 0 1 0;
#X connect 1 0 2 0;
#X connect 1 0 10 0;
#X connect 2 0 14 0;
#X connect 3 0 11 1;
#X connect 4 0 0 2;
#X connect 4 0 13 0;
#X connect 5 0 12 0;
#X connect 7 0 8 1;
#X connect 8 0 17 0;
#X connect 9 0 18 0;
#X connect 10 0 9 0;
#X connect 11 0 0 1;
#X connect 12 0 0 0;
#X connect 12 1 11 0;
#X connect 13 0 9 1;
#X connect 14 0 8 0;
#X connect 15 0 19 0;
#X connect 16 0 4 0;
#X connect 16 0 3 0;
#X connect 17 0 6 0;
#X connect 18 0 7 0;
#X connect 19 0 4 0;
#X connect 19 1 4 1;
